#!OML:ASF I:\salsa\salsa 7_09\Patient 1\Session 1\dancermale.ASF
:FULLY-SPECIFIED
:DEGREES
1690
root 6.8928 16.9611 5.35115 912.702 -499.977 -183.078
lowerback -19.0932 -6.58098 5.82537
upperback -7.74987 -10.2743 7.9469
thorax 2.68979 -5.21798 3.02658
lowerneck 2.37234 -12.3387 -5.44248
upperneck 5.11729 -16.5614 -2.96698
head 1.3937 -8.44794 -0.177158
rclavicle 6.40087e-014 -2.8625e-014
rhumerus -33.1235 33.0142 -95.1815
rradius 109.808
rwrist 7.484
rhand -63.3332 822.219
rfingers 7.12502
rthumb -35.3189 128.7
lclavicle 6.40087e-014 -2.8625e-014
lhumerus 81.9446 -28.2834 1.00833
lradius 93.5041
lwrist -40.3186
lhand -52.5762 -303.243
lfingers 7.12502
lthumb -25.0597 445.133
rfemur -26.3036 9.41503 28.8081
rtibia 32.8317
rfoot -15.0672 -11.6845
rtoes 31.2762
lfemur -201.864 153.076 -195.933
ltibia 70.1108
lfoot 10.2232 0.217945
ltoes 61.2727
1691
root 6.88515 16.9573 5.43796 912.708 -496.186 -182.97
lowerback -18.6214 -6.79634 6.01373
upperback -7.34597 -10.6003 7.99946
thorax 2.86594 -5.38042 2.93702
lowerneck 2.70652 -11.8592 -5.47288
upperneck 4.42825 -15.9686 -2.43466
head 1.1605 -8.12482 0.0413289
rclavicle -3.37934e-014 3.81667e-014
rhumerus -31.5685 33.1679 -94.8845
rradius 107.405
rwrist 5.2178
rhand -62.4262 812.053
rfingers 7.12502
rthumb -34.4584 118.734
lclavicle -3.37934e-014 3.81667e-014
lhumerus 80.6231 -30.9009 1.52841
lradius 93.4858
lwrist -41.3312
lhand -52.7005 -306.706
lfingers 7.12502
lthumb -25.1788 441.653
rfemur -26.3355 9.88611 28.2588
rtibia 33.4229
rfoot -15.9136 -9.61761
rtoes 28.4937
lfemur -203.2 154.166 -195.578
ltibia 71.3043
lfoot 7.6339 0.329072
ltoes 61.2497
1692
root 6.87797 16.9579 5.5215 912.757 -492.561 -182.9
lowerback -18.3811 -7.07145 6.20925
upperback -6.7785 -11.0379 8.03666
thorax 3.33292 -5.58294 2.7641
lowerneck 2.78185 -11.301 -5.42312
upperneck 3.75483 -15.2428 -2.00976
head 0.955964 -7.73758 0.198512
rclavicle -1.90833e-014 -2.8625e-014
rhumerus -29.9538 32.6735 -94.886
rradius 104.922
rwrist 3.59224
rhand -61.0892 639.045
rfingers 7.12502
rthumb -33.1882 107.915
lclavicle -1.90833e-014 -2.8625e-014
lhumerus 79.2206 -32.9911 1.83449
lradius 93.304
lwrist -42.2913
lhand -53.0082 -308.393
lfingers 7.12502
lthumb -25.4736 439.925
rfemur -26.3292 10.5819 27.7098
rtibia 33.8363
rfoot -16.8596 -7.85352
rtoes 23.9771
lfemur -204.366 155.546 -195.121
ltibia 71.7887
lfoot 4.64214 0.731088
ltoes 61.8229
1693
root 6.87586 16.9669 5.60026 912.765 -489.16 -182.727
lowerback -17.5497 -7.3846 6.19294
upperback -6.65825 -11.3969 8.1486
thorax 3.06158 -5.77781 2.9164
lowerneck 3.01444 -10.7014 -5.50977
upperneck 3.45533 -14.47 -1.80893
head 0.833108 -7.34323 0.303324
rclavicle 4.69132e-014 3.18055e-015
rhumerus -29.0199 32.1983 -95.0518
rradius 102.442
rwrist 2.15806
rhand -59.4707 647.965
rfingers 7.12502
rthumb -31.6479 99.3106
lclavicle 4.69132e-014 3.18055e-015
lhumerus 77.8282 -35.3291 2.47685
lradius 93.0756
lwrist -42.5811
lhand -52.756 -310.956
lfingers 7.12502
lthumb -25.232 437.396
rfemur -26.3071 11.4174 27.0394
rtibia 34.0099
rfoot -17.905 -6.50138
rtoes 19.7504
lfemur -205.46 157.446 -194.683
ltibia 71.6191
lfoot 1.17941 1.4916
ltoes 62.8247
1694
root 6.87195 16.9953 5.67533 912.533 -486.23 -182.521
lowerback -16.6781 -7.77202 5.99862
upperback -6.41035 -11.8213 8.18699
thorax 2.92612 -5.99483 3.07336
lowerneck 3.08834 -10.1808 -5.54487
upperneck 3.13216 -13.7885 -1.55026
head 0.729532 -6.99244 0.406561
rclavicle 3.02153e-014 1.27222e-013
rhumerus -27.7194 31.3444 -95.0389
rradius 99.8041
rwrist 0.957924
rhand -57.7196 655.391
rfingers 7.12502
rthumb -29.9784 92.2004
lclavicle 3.02153e-014 1.27222e-013
lhumerus 76.7487 -37.185 2.91281
lradius 92.9111
lwrist -42.1482
lhand -51.8984 -313.784
lfingers 7.12502
lthumb -24.4101 434.682
rfemur -25.7449 12.2862 26.4123
rtibia 33.5482
rfoot -18.5345 -5.72088
rtoes 16.3308
lfemur -206.263 159.859 -193.952
ltibia 70.856
lfoot -1.93772 0.775045
ltoes 64.1523
1695
root 6.86232 17.0398 5.75542 911.983 -483.677 -182.269
lowerback -15.6294 -8.19501 5.81171
upperback -6.11659 -12.2698 8.12216
thorax 2.72169 -6.22208 3.14719
lowerneck 3.0192 -9.77829 -5.43706
upperneck 2.99701 -13.2466 -1.39784
head 0.691351 -6.71579 0.441225
rclavicle -2.78299e-015 7.31528e-014
rhumerus -26.9119 30.5777 -94.9864
rradius 98.0706
rwrist -0.955289
rhand -57.0719 660.168
rfingers 7.12502
rthumb -29.3601 -87.5336
lclavicle -2.78299e-015 7.31528e-014
lhumerus 75.8134 -38.724 3.33348
lradius 92.4357
lwrist -42.097
lhand -51.1524 -315.531
lfingers 7.12502
lthumb -23.6948 433.029
rfemur -24.4962 13.1098 25.8712
rtibia 32.3978
rfoot -18.6532 -5.27727
rtoes 13.933
lfemur -206.631 162.838 -192.951
ltibia 69.402
lfoot -4.44696 -1.36908
ltoes 65.8082
1696
root 6.86087 17.0793 5.84207 911.654 -480.843 -181.988
lowerback -14.6622 -8.42497 5.76783
upperback -5.9623 -12.4836 8.00801
thorax 2.36211 -6.34023 3.15122
lowerneck 2.79328 -9.44968 -5.15858
upperneck 3.14863 -12.7841 -1.55345
head 0.736012 -6.48716 0.341134
rclavicle -6.48038e-014 4.13472e-014
rhumerus -25.7848 29.5225 -95.0127
rradius 96.1246
rwrist -3.04724
rhand -57.4511 664.243
rfingers 7.12502
rthumb -29.7221 -83.3944
lclavicle -6.48038e-014 4.13472e-014
lhumerus 74.8615 -39.9332 3.76269
lradius 91.7117
lwrist -42.3501
lhand -50.5277 -316.462
lfingers 7.12502
lthumb -23.0955 432.174
rfemur -23.6703 14.0912 25.1904
rtibia 31.378
rfoot -18.5222 -4.98125
rtoes 11.7639
lfemur -207.154 165.632 -192.07
ltibia 67.4948
lfoot -6.11258 -4.11911
ltoes 66.3868
1697
root 6.86897 17.1146 5.93082 911.727 -477.716 -181.8
lowerback -13.8891 -8.45973 5.82008
upperback -5.89104 -12.4693 7.88861
thorax 1.98821 -6.34775 3.12157
lowerneck 1.68819 -9.23289 -4.49966
upperneck 4.14545 -12.3925 -2.32802
head 1.12634 -6.31973 -0.0698365
rclavicle 3.73715e-014 -9.54166e-015
rhumerus -24.165 28.1589 -95.1635
rradius 93.7686
rwrist -3.99141
rhand -56.7608 669.544
rfingers 7.12502
rthumb -29.063 -78.2093
lclavicle 3.73715e-014 -9.54166e-015
lhumerus 74.0375 -40.7009 4.04067
lradius 90.8948
lwrist -42.3191
lhand -50.1109 -317.465
lfingers 7.12502
lthumb -22.6955 431.221
rfemur -23.4554 15.2062 24.403
rtibia 30.6756
rfoot -18.439 -5.32342
rtoes 8.89945
lfemur -207.939 168.289 -191.161
ltibia 65.2109
lfoot -7.58466 -7.02565
ltoes 66.7208
1698
root 6.88031 17.1476 6.02207 911.762 -474.608 -181.378
lowerback -13.3486 -8.37174 5.83169
upperback -5.80491 -12.301 7.62722
thorax 1.72638 -6.27251 2.95251
lowerneck -0.153889 -9.14223 -3.25028
upperneck 5.75191 -12.1136 -3.65998
head 1.78339 -6.23064 -0.802773
rclavicle 9.17391e-014 -3.18055e-015
rhumerus -22.16 26.6298 -95.1139
rradius 91.3633
rwrist -4.57707
rhand -55.6476 672.66
rfingers 7.12502
rthumb -27.9994 -75.2715
lclavicle 9.17391e-014 -3.18055e-015
lhumerus 73.6414 -41.0331 3.96276
lradius 90.1281
lwrist -42.0586
lhand -49.824 -318.741
lfingers 7.12502
lthumb -22.4201 429.978
rfemur -23.5382 16.1818 23.4198
rtibia 30.1169
rfoot -18.2921 -6.24771
rtoes 6.32886
lfemur -208.773 170.866 -190.321
ltibia 62.5838
lfoot -9.60633 -9.44979
ltoes 65.7701
1699
root 6.88893 17.1755 6.11922 911.45 -471.44 -180.529
lowerback -12.8876 -8.23671 5.69216
upperback -5.75013 -12.0563 7.32164
thorax 1.49482 -6.15674 2.81451
lowerneck -1.12871 -8.95586 -2.31558
upperneck 6.46271 -11.7978 -4.3985
head 2.08361 -6.09377 -1.24565
rclavicle 6.58474e-014 -4.77083e-014
rhumerus -20.0625 25.2417 -95.097
rradius 89.0093
rwrist -5.17796
rhand -54.3503 672.82
rfingers 7.12502
rthumb -26.7586 -75.3076
lclavicle 6.58474e-014 -4.77083e-014
lhumerus 73.3238 -41.061 3.75218
lradius 89.3847
lwrist -41.4813
lhand -49.3932 -319.79
lfingers 7.12502
lthumb -22.0066 428.978
rfemur -23.7116 17.1451 22.1477
rtibia 29.5946
rfoot -18.141 -7.44289
rtoes 7.98493
lfemur -209.432 173.547 -189.533
ltibia 59.4467
lfoot -11.8058 -10.8826
ltoes 64.0347
1700
root 6.88798 17.2048 6.22421 910.931 -468.382 -179.627
lowerback -12.4197 -8.0957 5.55307
upperback -5.63825 -11.8082 7.03041
thorax 1.32374 -6.03565 2.6844
lowerneck -1.76617 -8.5441 -2.75096
upperneck 7.42945 -11.2291 -3.57752
head 2.6029 -5.81927 -0.991971
rclavicle -1.40143e-014 -8.26944e-014
rhumerus -17.7823 24.0764 -94.9823
rradius 86.8883
rwrist -5.91125
rhand -53.2114 674.582
rfingers 7.12502
rthumb -25.6683 -73.708
lclavicle -1.40143e-014 -8.26944e-014
lhumerus 72.9617 -40.7786 3.68308
lradius 88.6273
lwrist -40.6851
lhand -48.8011 -320.772
lfingers 7.12502
lthumb -21.438 428.062
rfemur -23.6877 17.8452 20.8982
rtibia 28.9769
rfoot -18.0279 -8.96471
rtoes 12.9511
lfemur -209.704 176.559 -188.509
ltibia 56.0331
lfoot -14.2505 -11.6511
ltoes 60.9537
